<?xml version="1.0" encoding="UTF-8" standalone="no"?>
<!DOCTYPE svg PUBLIC "-//W3C//DTD SVG 1.1//EN" "http://www.w3.org/Graphics/SVG/1.1/DTD/svg11.dtd">
<svg width="100%" height="100%" viewBox="0 0 567 241" version="1.1" xmlns="http://www.w3.org/2000/svg" xmlns:xlink="http://www.w3.org/1999/xlink" xml:space="preserve" xmlns:serif="http://www.serif.com/" style="fill-rule:evenodd;clip-rule:evenodd;stroke-linejoin:round;stroke-miterlimit:2;">
    <g transform="matrix(1,0,0,1,-537.866428,-269.521719)">
        <g id="Gemini_Generated_Image_uc1js1uc1js1uc1j.png" transform="matrix(1,0,0,1,513,222)">
            <path d="M442.431,155.679C442.428,155.92 442.622,156.135 442.619,156.376C442.611,156.906 442.401,156.866 442.405,158.502C442.454,180.208 442.436,180.206 442.479,181.451C442.161,181.498 441.948,181.719 440.509,181.74C425.79,181.956 425.803,181.5 256.5,181.741C256.184,181.742 253.077,181.746 252.558,181.409C251.637,180.81 251.669,180.554 251.717,167.502C251.728,164.558 251.706,161.82 251.802,161.571C252.419,159.986 252.776,160.206 254.487,160.168C269.538,159.837 269.533,160.089 288.494,159.337C294.252,159.109 294.251,159.333 360.498,157.435C364.257,157.327 364.258,157.507 407.495,156.274C419.747,155.925 437.859,155.558 440.5,155.505C441.739,155.48 442.256,155.663 442.431,155.679Z" style="fill:rgb(233,80,28);"/>
            <path d="M401.707,122.215C401.808,123.878 401.898,123.851 401.906,125.496C401.949,133.656 402.083,144.451 401.924,148.518C401.852,150.353 402.061,150.325 402.498,152.49C379.003,153.259 379.01,152.768 355.504,153.645C352.065,153.774 352.072,153.589 312.502,154.642C295.369,155.098 293.816,154.832 275.498,155.439C266.794,155.728 253.712,155.867 253.446,155.826C251.756,155.564 251.744,155.211 251.708,153.495C251.688,152.539 251.736,148.581 251.712,137.494C251.705,134.361 252.407,134.186 255.534,133.927C305.645,129.768 305.641,129.739 308.484,129.352C311.042,129.003 347.784,126.127 367.477,124.263C371.369,123.895 371.378,124.099 377.487,123.369C379.425,123.137 400.166,121.677 401.318,121.99C401.462,122.03 401.562,122.176 401.707,122.215Z" style="fill:rgb(233,80,28);"/>
            <path d="M202.539,287.086C201.636,286.984 199.532,286.877 198.999,286.111C198.604,285.544 198.609,283.712 198.61,283.501C198.748,231.06 198.518,231.063 198.646,226.505C198.718,223.938 200.497,223.881 205.495,223.446C223.367,221.89 233.977,223.777 239.369,226.755C241.711,228.048 251.342,232.207 254.098,245.572C254.324,246.666 255.706,253.37 254.683,259.527C253.911,264.175 252.585,273.173 243.346,280.296C230.393,290.282 206.89,287.374 202.539,287.086ZM213.034,253.499C213.034,263.472 213.032,263.452 212.965,266.498C212.888,269.999 213.077,269.986 212.974,273.496C212.869,277.061 214.765,276.766 218.5,276.757C242.513,276.698 242.026,250.901 237.825,243.341C233.178,234.977 226.343,233.146 215.536,233.887C212.757,234.077 212.954,235.408 212.962,240.496L212.966,246.501C212.966,247.061 213.033,247.05 213.034,253.499Z" style="fill:rgb(22,48,41);"/>
            <path d="M189.101,251.53C189.124,253.012 189.925,260.82 185.599,270.55C182.449,277.636 175.533,281.684 174.411,282.341C172.932,283.207 165.683,287.562 148.5,287.698C147.906,287.702 134.698,287.356 133.552,286.428C132.581,285.642 132.833,285.353 132.812,264.501C132.809,262.165 132.806,226.656 132.809,226.508C132.848,224.594 133.687,224.112 135.548,223.84C135.836,223.797 148.657,222.355 157.526,223.08C166.67,223.828 170.987,224.339 179.496,230.505C180.866,231.498 185.607,235.978 187.639,243.459C188.964,248.339 189.031,250.754 189.101,251.53ZM147.111,255.5C147.118,275.331 147.019,275.534 147.78,276.161C148.721,276.935 160.255,278.151 167.566,271.578C175.351,264.579 176.331,247.885 169.788,240.253C165.915,235.736 161.113,232.988 149.548,233.888C146.569,234.12 147.109,236.229 147.116,241.501L147.111,255.5Z" style="fill:rgb(22,48,41);"/>
            <path d="M221.5,160.279C226.5,160.28 231.5,160.281 236.5,160.282C245.852,160.284 246.141,160.059 246.953,161.236C247.256,161.675 247.245,161.728 247.236,177.5C247.234,180.599 247.597,181.731 244.505,181.755C244.044,181.758 226.1,181.746 224.5,181.744C115.278,181.667 115.238,181.794 114.494,181.513C113.169,181.013 113.412,179.701 113.413,170.5C113.414,161.999 112.946,160.575 115.476,160.305C116.004,160.248 213.018,160.277 221.5,160.279Z" style="fill:rgb(22,48,41);"/>
            <path d="M80.071,237.612C79.809,237.466 79.788,237.58 79.543,237.443C78.739,236.995 78.831,236.878 78.754,236.878C78.542,236.876 78.534,237.242 78.451,237.437C77.817,238.924 77.799,238.902 77.487,240.495C77.247,241.715 75.668,249.762 73.804,255.593C69.108,270.289 69.234,270.322 68.823,271.598C68.512,272.564 65.172,282.943 64.919,283.654C63.989,286.27 62.393,285.776 59.498,285.771C54.438,285.763 53.034,286.523 51.955,282.386C48.952,270.875 48.46,271.024 45.511,259.497C41.798,244.989 42.102,244.926 41.409,239.538C41.196,237.884 41.129,237.879 40.593,237.315C40.077,236.773 39.89,236.839 39.44,237.444C39.016,238.012 39.659,245.165 39.57,249.502C39.538,251.063 38.6,272.96 38.561,273.503C37.695,285.586 38.342,286.331 36.593,286.803C35.89,286.992 35.893,286.934 27.494,286.865C25.789,286.851 25.384,287.081 24.874,285.442C24.809,285.235 25.199,277.384 25.28,276.48C26.026,268.216 25.746,268.216 26.273,261.484C26.571,257.682 26.52,257.69 27.17,247.477C28.4,228.171 28.234,228.167 28.344,226.489C28.581,222.861 29.869,223.377 33.501,223.389C46.396,223.431 46.483,223.313 47.235,223.844C48.582,224.794 52.601,241.072 54.325,246.556C58.373,259.432 58.23,263.519 58.477,265.51C58.591,266.432 58.57,266.687 59.503,266.677C59.789,266.674 60.108,266.568 60.296,266.354C60.499,266.122 60.865,262.871 61.499,260.5C61.825,259.283 64.662,248.184 66.202,243.407C66.667,241.961 71.897,225.731 72.041,225.335C72.895,222.993 73.63,223.354 82.501,223.41C89.086,223.451 90.944,222.844 91.144,225.541C91.968,236.617 92.002,236.612 92.065,238.523C92.278,245.021 92.562,244.992 92.864,251.479C93.184,258.335 94.658,282.936 94.686,284.501C94.724,286.618 93.722,286.802 92.533,286.872C89.351,287.059 84.199,286.886 83.475,286.862C80.834,286.773 81.133,285.146 81.017,283.536C80.407,275.021 80.147,266.042 80.103,264.519C79.54,245.017 79.412,242.459 80.071,237.612Z" style="fill:rgb(22,48,41);"/>
            <path d="M372.491,119.468C365.505,120.274 333.272,122.454 323.521,123.693C322.644,123.804 322.636,123.624 312.511,124.631C310.825,124.799 301.471,125.551 300.511,125.629C279.329,127.333 279.333,127.259 277.493,127.419C272.832,127.831 268.171,128.242 263.511,128.653C261.524,128.828 259.241,128.911 255.474,129.263C255.244,129.284 252.976,129.496 252.586,129.308C251.431,128.753 251.761,127.973 251.717,111.499C251.71,108.858 251.966,108.31 255.543,107.867C256.813,107.71 256.801,107.805 271.433,106.029C272.163,105.94 272.141,105.816 280.537,104.755C286.772,103.967 289.694,103.53 290.489,103.411C291.529,103.255 291.538,103.445 303.551,101.899C305.816,101.608 315.921,100.623 324.464,99.252C325.347,99.111 325.344,99.174 335.543,97.843C356.457,95.113 358.617,96.369 366.524,94.753C366.836,94.689 366.84,94.73 370.495,94.393C370.867,94.359 371.277,94.048 371.604,94.229C372.057,94.479 372.363,95 372.498,95.501C372.558,95.725 372.474,95.732 372.489,106.5C372.503,116.462 372.431,116.463 372.574,117.536C372.618,117.86 372.768,118.173 372.754,118.5C372.74,118.834 372.506,119.134 372.491,119.468Z" style="fill:rgb(233,80,28);"/>
            <path d="M221.5,134.195C246.023,134.177 246.081,134.195 246.5,134.5C247.378,135.136 247.23,135.84 247.241,152.502C247.241,152.657 247.242,154.284 247.186,154.442C246.606,156.074 246.23,155.861 244.506,155.872C238.572,155.911 160.78,155.855 153.499,155.85C151.877,155.849 150.063,156.145 149.869,153.482C149.86,153.354 149.864,136.728 149.873,136.52C149.992,133.665 151.683,134.194 159.501,134.202C180.167,134.2 200.834,134.197 221.5,134.195Z" style="fill:rgb(22,48,41);"/>
            <path d="M475.501,286.88C472.702,286.835 471.896,287.11 471.076,284.639C469.768,280.696 467.545,272.207 466.721,271.318C465.698,270.212 465.431,270.628 454.499,270.554C452.388,270.539 448.971,270.274 448.309,271.349C447.149,273.231 444.751,285.301 443.403,286.381C442.545,287.068 440.067,286.858 433.498,286.865C433.249,286.865 430.643,286.868 430.387,286.793C429.427,286.513 429.38,285.64 429.373,285.509C429.306,284.265 429.883,284.393 433.87,270.604C435.616,264.565 438.967,254.812 440.712,248.565C441.209,246.786 441.412,246.857 447.558,226.518C448.672,222.83 449.658,223.396 453.501,223.409C466.229,223.451 466.66,223.102 467.457,224.528C468.471,226.339 471.489,238.044 474.404,246.532C474.895,247.964 484.635,279.985 485.817,283.399C486.627,285.737 487.011,286.813 484.537,286.884C483.814,286.905 483.823,286.857 475.501,286.88ZM458.096,234.937C457.737,234.935 457.854,235.25 457.489,235.248C456.808,235.244 456.977,234.91 456.93,234.93C456.737,235.013 456.505,236.364 456.483,236.492C455.618,241.52 455.519,241.486 454.193,246.423C452.826,251.511 450.84,258.326 450.869,258.489C450.898,258.651 451.081,259.687 452.437,259.831C452.542,259.842 462.462,259.864 462.57,259.854C463.879,259.734 464.15,258.657 464.192,258.493C464.336,257.921 461.779,250.198 461.543,249.484C458.293,239.669 459.284,238.89 458.096,234.937Z" style="fill:rgb(233,80,28);"/>
            <path d="M382.84,235.499C382.84,234.701 382.84,225.699 382.845,225.521C382.911,223.291 384.59,223.403 385.499,223.394C387.579,223.375 387.564,223.398 411.5,223.397C420.62,223.397 422.05,222.989 422.236,225.526C422.269,225.976 422.25,232.331 422.237,232.483C422.013,235.118 421.14,234.8 418.503,234.809C398.473,234.879 398.224,234.635 397.516,235.512C397.126,235.995 397.108,237.331 397.106,237.492C396.971,247.418 397.121,247.574 397.817,248.057C398.354,248.43 401.204,248.438 401.5,248.439C418.982,248.492 419.411,248.221 420.184,248.867C420.717,249.311 420.997,249.545 420.786,257.511C420.704,260.612 418.489,259.95 413.498,259.944C398.925,259.925 397.696,259.497 397.203,261.413C397.039,262.052 397.115,273.507 397.121,273.552C397.445,275.978 398.953,275.485 406.5,275.479C421.955,275.466 422.154,275.264 422.923,276.084C423.385,276.576 423.641,276.849 423.464,284.499C423.411,286.817 422.814,286.886 420.503,286.889C417.702,286.892 391.007,286.92 385.495,286.875C383.788,286.862 383.397,287.057 382.873,285.432C382.798,285.2 382.841,285.2 382.84,235.499Z" style="fill:rgb(233,80,28);"/>
            <path d="M316.5,286.884C316.239,286.871 313.695,287.22 313.252,285.58C313.1,285.018 313.153,273.499 313.158,238.5C313.16,224.658 312.844,223.992 314.511,223.536C315.699,223.21 345.781,223.391 348.5,223.407C351.629,223.426 352.592,223.364 352.589,226.5C352.583,231.911 352.738,233.502 352.143,234.203C351.629,234.809 349.719,234.821 349.502,234.822C331.111,234.936 331.115,234.76 329.517,234.806C329.3,234.813 327.663,234.86 327.378,236.481C327.312,236.853 327.328,246.2 327.353,246.516C327.499,248.391 329.318,248.404 329.507,248.419C330.481,248.495 345.14,248.448 346.5,248.443C349.895,248.432 351.157,248.115 351.046,251.499C350.83,258.06 351.02,258.074 350.867,258.623C350.424,260.217 349.157,259.958 339.499,259.934C328.833,259.908 327.807,259.673 327.413,261.481C327.382,261.621 327.105,273.3 327.555,274.475C328.055,275.779 329.671,275.448 339.5,275.456C352.499,275.467 352.585,275.444 353.144,275.906C353.761,276.416 353.776,278.285 353.778,278.499C353.828,284.807 353.792,285.779 353.304,286.321C352.568,287.137 352.325,286.811 316.5,286.884Z" style="fill:rgb(22,48,41);"/>
            <path d="M414.47,121.61C428.068,122.128 429.63,121.848 442.494,122.613C450.52,123.09 457.341,122.507 458.343,123.655C458.798,124.176 458.807,124.27 458.816,145.5C458.819,150.601 459.28,152.529 456.512,152.646C454.767,152.719 411.809,152.473 403.499,152.505C403.635,152.154 403.878,151.851 404.014,151.5C404.584,150.02 404.089,138.59 404.301,122.298C404.499,122.24 404.616,122.008 404.814,121.951C405.295,121.811 411.755,122.355 412.523,122.176C412.989,122.069 412.908,121.914 413.373,121.778C413.923,121.618 413.932,121.766 414.47,121.61Z" style="fill:rgb(242,139,45);"/>
            <path d="M330.336,71.788C329.646,74.547 329.988,74.572 329.922,88.509C329.914,90.076 329.877,90.063 329.953,91.641C330.034,93.328 329.66,93.373 329.588,93.794C325.976,94.23 311.109,96.236 301.475,97.288C297.952,97.673 297.986,97.839 294.457,98.17C291.73,98.425 291.798,98.942 260.502,102.521C256.778,102.947 252.439,104.092 251.833,102.381C251.489,101.409 251.645,101.375 251.713,89.496C251.731,86.372 251.512,85.585 254.591,84.974C255.622,84.77 255.635,84.926 267.534,82.668C269.06,82.378 269.021,82.286 286.58,78.888C298.517,76.577 298.541,76.789 310.455,74.296C317.096,72.906 320.071,73.083 328.488,71.685C329.829,71.463 329.8,71.758 330.336,71.788Z" style="fill:rgb(233,80,28);"/>
            <path d="M503.56,287.135C501.572,286.656 501.452,286.993 496.299,284.999C492.711,283.612 493.669,282.42 495.07,276.398C495.766,273.403 495.77,272.032 498.625,273.151C499.326,273.426 505.123,275.699 507.576,276.028C523.158,278.113 523.649,268.947 521.192,265.729C516.43,259.494 505.603,260.577 497.59,251.419C493.309,246.525 491.744,236.162 499.644,228.65C508.027,220.678 522.502,222.113 528.487,223.554C533.853,224.847 534.333,225.708 533.545,228.513C531.958,234.16 532.047,234.176 531.887,234.659C531.528,235.742 531.614,235.972 530.483,236.168C530.182,236.219 526.471,234.731 523.548,234.242C509.114,231.828 507.53,239.32 508.953,242.301C512.176,249.057 525.815,248.264 533.379,257.593C538.792,264.27 537.159,272.79 534.972,276.739C526.808,291.478 505.952,287.523 503.56,287.135Z" style="fill:rgb(233,80,28);"/>
            <path d="M444.555,155.654C447.263,155.452 447.266,155.454 478.495,155.844C479.94,155.862 495.945,156.062 496.565,156.193C498.153,156.528 498.072,156.897 498.092,158.513C498.093,158.608 498.086,176.9 498.085,178.499C498.084,182.396 496.513,181.742 493.5,181.737C478.166,181.737 462.833,181.736 447.5,181.736C445.705,181.737 445.721,181.634 444.512,181.472C444.502,181.19 444.351,180.925 444.341,180.642C444.306,179.592 444.447,179.612 444.443,167.5C444.442,166.699 444.439,157.536 444.437,157.485C444.418,157.075 444.258,156.674 444.285,156.265C444.299,156.043 444.541,155.876 444.555,155.654Z" style="fill:rgb(242,139,45);"/>
            <path d="M189.501,129.888C186.355,129.829 185.058,130.631 184.869,127.485C184.861,127.35 184.868,110.762 184.879,110.522C185.008,107.776 187.124,108.333 192.499,108.312C196.741,108.295 244.137,108.107 245.525,108.349C247.15,108.631 247.213,110.298 247.221,110.518C247.222,110.552 247.285,128.154 247.189,128.442C246.637,130.097 246.237,129.886 244.505,129.897C240.105,129.926 240.109,129.863 189.501,129.888Z" style="fill:rgb(22,48,41);"/>
            <path d="M566.498,286.88C563.014,286.874 560.505,287.069 559.875,286.201C559.308,285.42 559.53,285.298 559.474,256.5C559.435,236.298 559.712,235.86 558.59,235.356C557.247,234.753 546.686,235.21 544.516,235.084C542.162,234.946 542.115,233.614 542.09,232.519C541.909,224.51 542.22,224.264 542.768,223.833C543.487,223.266 543.614,223.417 575.5,223.399C589.804,223.391 590.22,223.213 590.723,224.38C590.981,224.979 591.14,225.35 590.962,232.529C590.915,234.453 590.269,235.048 588.487,235.092C582.807,235.232 575.746,234.767 574.436,235.405C573.302,235.959 573.651,236.71 573.622,266.5C573.603,285.552 573.629,285.638 573.177,286.224C572.513,287.085 569.9,286.878 566.498,286.88Z" style="fill:rgb(233,80,28);"/>
            <path d="M301.501,286.889C267.512,286.805 266.482,287.057 265.457,286.572C264.419,286.082 264.653,285.705 264.637,270.5C264.633,266.901 264.589,226.351 264.65,225.511C264.837,222.951 266.262,223.436 274.499,223.4C276.135,223.392 278.661,222.808 278.894,225.458C278.926,225.821 278.868,273.242 278.918,273.454C279.33,275.184 279.742,275.045 281.506,275.112C284.116,275.21 302.585,274.897 303.598,275.311C304.73,275.774 304.532,277.819 304.56,283.499C304.561,283.72 304.57,285.687 304.166,286.229C303.471,287.161 303.245,286.72 301.501,286.889Z" style="fill:rgb(22,48,41);"/>
            <path d="M374.478,93.354C378.907,93.19 379.313,93.722 393.515,94.136C399.611,94.314 399.577,94.596 406.488,94.802C410.645,94.926 413.384,94.647 413.824,96.405C413.877,96.614 414.092,114.63 413.779,119.575C413.448,119.607 413.155,119.83 412.824,119.862C412.479,119.895 412.48,119.843 408.497,119.717C398.684,119.406 392.55,119.943 380.495,119.636C377.99,119.573 378.004,119.571 375.501,119.493C375.371,119.118 374.976,118.874 374.846,118.5C374.748,118.219 374.864,114.62 374.839,107.503C374.801,96.572 374.991,96.561 374.478,93.354Z" style="fill:rgb(242,139,45);"/>
            <path d="M298.455,48.097C298.691,48.623 299.682,48.492 299.918,49.017C300.033,49.273 299.527,49.243 299.543,52.499C299.581,59.916 299.51,68.015 299.589,68.522C299.64,68.856 299.854,69.162 299.856,69.5C299.859,69.915 299.601,70.304 299.603,70.719C297.019,71.356 269.597,77.323 264.467,78.336C252.941,80.613 252.606,81.13 251.974,80.162C251.713,79.763 251.724,76.789 251.725,76.495C251.762,66.174 251.345,63.696 252.602,62.627C253.042,62.253 253.237,62.087 259.425,60.267C272.487,56.425 272.371,56.09 285.415,52.218C291.977,50.271 291.897,50.081 298.455,48.097Z" style="fill:rgb(233,80,28);"/>
            <path d="M111.501,286.881C109.384,286.881 106.59,287.261 106.125,285.638C105.828,284.596 106.118,266.049 105.939,260.499C105.903,259.386 105.939,231.06 105.943,228.5C105.946,225.991 105.354,223.522 108.497,223.444C109.298,223.424 117.242,223.228 118.509,223.444C120.097,223.715 120.157,225.312 120.164,225.524C120.187,226.139 120.169,284.161 120.159,284.485C120.109,286.137 120.199,286.526 118.57,286.835C118.339,286.879 115.644,286.874 111.501,286.881Z" style="fill:rgb(22,48,41);"/>
            <path d="M340.388,70.794C352.946,71.139 352.923,71.385 365.49,71.84C370.421,72.019 371.825,72.126 372.346,72.651C373.058,73.369 372.883,73.935 372.913,88.499C372.918,90.585 372.836,90.574 372.765,91.555C372.241,91.708 371.889,92.251 371.365,92.405C371.221,92.447 371.223,92.175 369.495,92.414C366.937,92.768 366.921,92.511 364.38,93.002C358.955,94.049 339.045,93.838 332.485,93.581C332.407,92.986 332.123,93.088 332.045,92.5C332.036,92.429 332.132,92.447 332.226,91.624C332.327,90.74 332.289,81.392 332.285,80.502C332.254,72.991 332.114,72.994 332.194,72.346C332.23,72.054 332.484,71.819 332.52,71.527C335.018,71.395 335.009,71.534 337.502,71.446C339.421,71.378 340.112,70.88 340.388,70.794Z" style="fill:rgb(242,139,45);"/>
            <path d="M301.534,47.62C302.643,47.553 302.637,47.443 306.496,47.608C308.815,47.708 322.308,48.286 335.478,48.979C338.162,49.12 339.292,49.238 339.632,50.462C339.804,51.08 339.789,64.409 339.76,68.525C339.261,68.708 338.996,69.315 338.497,69.497C338.174,69.616 337.817,69.384 337.473,69.362C334.704,69.187 329.216,69.46 328.499,69.496C326.825,69.579 322.623,70.935 302.494,70.538C302.392,70.168 302.097,69.87 301.995,69.5C301.882,69.091 301.898,67.624 301.9,67.461C301.917,65.944 302.079,51.097 301.765,48.5C301.728,48.199 301.571,47.921 301.534,47.62Z" style="fill:rgb(242,139,45);"/>
            <path d="M247.234,91.498C247.23,102.109 247.4,102.719 246.496,103.494C245.978,103.939 245.862,103.734 215.503,103.845C214.18,103.85 210.599,104.095 209.922,103.174C209.496,102.594 209.531,102.521 209.51,91.5C209.507,89.571 209.199,86.295 210.577,85.68C211.455,85.288 211.508,85.49 242.5,85.446C244.098,85.444 245.976,85.153 246.851,86.23C247.402,86.908 247.237,89.097 247.234,91.498Z" style="fill:rgb(22,48,41);"/>
            <path d="M233.506,81.094C232.099,81.091 228.39,81.215 227.36,80.686C226.579,80.284 226.716,79.882 226.715,67.499C226.715,65.623 226.17,62.963 228.524,62.743C229.307,62.67 243.217,62.759 244.495,62.767C247.341,62.785 247.234,63.675 247.237,66.508C247.255,79.873 247.199,79.893 247.022,80.26C246.542,81.254 245.418,81.135 233.506,81.094Z" style="fill:rgb(22,48,41);"/>
            <path d="M401.707,122.215C401.961,122.3 401.973,122.745 402.228,122.83C403.073,123.113 403.695,122.953 403.819,122.921C404.246,122.811 403.88,122.406 404.301,122.298C404.089,138.59 404.584,150.02 404.014,151.5C403.878,151.851 403.635,152.154 403.499,152.505L402.498,152.49C402.061,150.325 401.852,150.353 401.924,148.518C402.083,144.451 401.949,133.656 401.906,125.496C401.898,123.851 401.808,123.878 401.707,122.215Z" style="fill:white;"/>
            <path d="M301.534,47.62C301.571,47.921 301.728,48.199 301.765,48.5C302.079,51.097 301.917,65.944 301.9,67.461C301.898,67.624 301.882,69.091 301.995,69.5C302.097,69.87 302.392,70.168 302.494,70.538C299.816,70.723 299.834,70.7 299.603,70.719C299.601,70.304 299.859,69.915 299.856,69.5C299.854,69.162 299.64,68.856 299.589,68.522C299.51,68.015 299.581,59.916 299.543,52.499C299.527,49.243 300.033,49.273 299.918,49.017C299.682,48.492 298.691,48.623 298.455,48.097C299.982,47.751 299.969,47.775 301.534,47.62Z" style="fill:white;"/>
            <path d="M442.431,155.679C443.139,155.67 443.847,155.662 444.555,155.654C444.541,155.876 444.299,156.043 444.285,156.265C444.258,156.674 444.418,157.075 444.437,157.485C444.439,157.536 444.442,166.699 444.443,167.5C444.447,179.612 444.306,179.592 444.341,180.642C444.351,180.925 444.502,181.19 444.512,181.472C443.834,181.465 443.157,181.458 442.479,181.451C442.436,180.206 442.454,180.208 442.405,158.502C442.401,156.866 442.611,156.906 442.619,156.376C442.622,156.135 442.428,155.92 442.431,155.679Z" style="fill:white;"/>
            <path d="M330.336,71.788C331.064,71.701 331.792,71.614 332.52,71.527C332.484,71.819 332.23,72.054 332.194,72.346C332.114,72.994 332.254,72.991 332.285,80.502C332.289,81.392 332.327,90.74 332.226,91.624C332.132,92.447 332.036,92.429 332.045,92.5C332.123,93.088 332.407,92.986 332.485,93.581C331.017,93.666 331.041,93.708 329.588,93.794C329.66,93.373 330.034,93.328 329.953,91.641C329.877,90.063 329.914,90.076 329.922,88.509C329.988,74.572 329.646,74.547 330.336,71.788Z" style="fill:white;"/>
        </g>
    </g>
</svg>
